# xmcd
#
# Track frame offsets:
# 150
# 11325
# 21307
# 36645
# 51954
# 64142
# 80748
# 93925
# 105327
# 114104
# 126186
#
# Disc length: 1850 seconds
#
# Revision: 0
# Processed by: cddbd v1.5.1PL0 Copyright (c) Steve Scherf et al.
# Submitted via: Audion 3.0.2 (http://www.panic.com/audion/)
#
DISCID=8907380b
DTITLE=Bob Wills and his Texas Playboys - Bob Wills
DYEAR=1900
DGENRE=
TTITLE0=gf
TTITLE1=fg
TTITLE2=The Rose of San Antone
TTITLE3=fgh
TTITLE4=fgh
TTITLE5=g
TTITLE6=g
TTITLE7=g
TTITLE8=g
TTITLE9=g
TTITLE10=g
EXTD=
EXTT0=
EXTT1=
EXTT2=
EXTT3=
EXTT4=
EXTT5=
EXTT6=
EXTT7=
EXTT8=
EXTT9=
EXTT10=
PLAYORDER=
